<svg height="423pt" viewBox="-14 0 423 423.25333" width="423pt" xmlns="http://www.w3.org/2000/svg"><path d="m198.101562 395.945312c-101.800781 0-184.324218 6.117188-184.324218 13.65625 0 7.542969 82.523437 13.652344 184.324218 13.652344 101.800782 0 184.316407-6.109375 184.316407-13.652344 0-7.539062-82.515625-13.65625-184.316407-13.65625" fill="#eeeef0"/><path d="m361.941406 245.761719h-20.480468v-95.574219c0-79.179688-64.1875-143.359375-143.359376-143.359375-79.175781 0-143.363281 64.179687-143.363281 143.359375v95.574219h-20.476562c-15.082031 0-27.308594 12.222656-27.308594 27.304687 0 15.082032 12.226563 27.308594 27.308594 27.308594h20.476562v46.890625c0 34.425781 27.910157 62.335937 62.335938 62.335937h20.019531c14.839844 0 26.871094-12.035156 26.871094-26.875v-20.914062h68.269531v20.914062c0 14.839844 12.03125 26.875 26.871094 26.875h20.019531c34.429688 0 62.335938-27.910156 62.335938-62.335937v-46.890625h20.480468c15.078125 0 27.304688-12.226562 27.304688-27.308594 0-15.078125-12.226563-27.304687-27.304688-27.304687zm0 0" fill="#61c5a8"/><g fill="#54596e"><path d="m361.941406 245.761719v-6.828125h-13.65625v-88.746094c0-82.953125-67.238281-150.18359375-150.183594-150.1875-82.949218.00390625-150.183593 67.234375-150.1875 150.1875v88.746094h-13.652343c-18.855469.003906-34.132813 15.277344-34.136719 34.132812.007812 18.855469 15.28125 34.128906 34.136719 34.132813h13.652343v40.066406c.003907 38.195313 30.960938 69.15625 69.160157 69.160156h20.015625c18.613281-.003906 33.695312-15.085937 33.703125-33.699219v-14.089843h54.613281v14.089843c.003906 18.613282 15.082031 33.695313 33.699219 33.699219h20.019531c38.199219-.003906 69.15625-30.964843 69.160156-69.160156v-40.070313l13.652344.003907c18.851562-.003907 34.128906-15.277344 34.132812-34.132813-.003906-18.855468-15.28125-34.128906-34.132812-34.132812v13.652344c11.304688.023437 20.457031 9.171874 20.480469 20.484374-.023438 11.304688-9.175781 20.457032-20.480469 20.476563h-20.480469c-1.796875 0-3.558593.730469-4.828125 2-1.273437 1.269531-1.996094 3.03125-1.996094 4.828125v46.890625c-.003906 15.347656-6.203124 29.183594-16.257812 39.25-10.066406 10.054687-23.898438 16.253906-39.25 16.257813h-20.019531c-11.066407-.023438-20.023438-8.980469-20.046875-20.046876v-20.914062c0-1.796875-.726563-3.554688-1.996094-4.828125-1.273438-1.269531-3.03125-1.996094-4.828125-1.996094h-68.269531c-1.796875 0-3.554688.726563-4.828125 1.996094-1.269531 1.273437-1.996094 3.03125-1.996094 4.828125v20.914062c-.019531 11.066407-8.980469 20.023438-20.046875 20.046876h-20.019531c-15.351563-.003907-29.183594-6.203126-39.25-16.257813-10.054688-10.066406-16.253907-23.902344-16.257813-39.25v-46.890625c0-1.800781-.726562-3.558594-2-4.828125-1.269531-1.269531-3.027344-2-4.828125-2h-20.476562c-11.308594-.023437-20.460938-9.175781-20.480469-20.480469.019531-11.308594 9.171875-20.460937 20.480469-20.480468h20.476562c1.824219 0 3.539063-.710938 4.828125-2 1.289063-1.289063 2-3 2-4.824219v-95.574219c.003906-37.726562 15.273438-71.816406 39.992188-96.546875 24.726562-24.714844 58.820312-39.984375 96.542968-39.988281 37.722657.007812 71.8125 15.273437 96.542969 39.992187 24.71875 24.726563 39.984375 58.816407 39.988281 96.542969v95.574219c0 1.820312.710938 3.535156 2 4.824219 1.289063 1.289062 3.003907 2 4.828126 2h20.480468zm0 0"/><path d="m143.488281 368.640625h109.226563c3.769531 0 6.824218-3.058594 6.824218-6.828125s-3.054687-6.824219-6.824218-6.824219h-109.226563c-3.773437 0-6.828125 3.054688-6.828125 6.824219s3.054688 6.828125 6.828125 6.828125"/><path d="m129.832031 143.359375c0 7.542969-6.113281 13.652344-13.652343 13.652344-7.539063 0-13.652344-6.109375-13.652344-13.652344 0-7.539063 6.113281-13.652344 13.652344-13.652344 7.539062 0 13.652343 6.113281 13.652343 13.652344zm0 0"/><path d="m293.671875 143.359375c0 7.542969-6.113281 13.652344-13.652344 13.652344-7.539062 0-13.652343-6.109375-13.652343-13.652344 0-7.539063 6.113281-13.652344 13.652343-13.652344 7.539063 0 13.652344 6.113281 13.652344 13.652344zm0 0"/></g><path d="m136.660156 245.761719h34.132813v3.410156c0 9.425781-7.640625 17.066406-17.066407 17.066406-9.425781 0-17.066406-7.640625-17.066406-17.066406zm0 0" fill="#fff"/><path d="m218.578125 136.535156v51.199219c0 9.421875-7.640625 17.066406-17.066406 17.066406h-6.824219c-9.425781 0-17.066406-7.644531-17.066406-17.066406v-51.199219" fill="#ff927d"/><path d="m211.753906 136.535156v51.199219c-.011718 5.652344-4.589844 10.226563-10.242187 10.238281h-6.824219c-5.65625-.011718-10.230469-4.585937-10.242188-10.238281v-51.199219c0-3.773437-3.054687-6.828125-6.824218-6.828125-3.769532 0-6.828125 3.054688-6.828125 6.828125v51.199219c.003906 13.195313 10.695312 23.886719 23.894531 23.890625h6.824219c13.199219-.003906 23.890625-10.695312 23.894531-23.890625v-51.199219c0-3.773437-3.054688-6.828125-6.828125-6.828125-3.769531 0-6.824219 3.054688-6.824219 6.828125zm0 0" fill="#54596e"/><path d="m225.40625 245.761719h34.132812v3.410156c0 9.425781-7.640624 17.066406-17.066406 17.066406-9.425781 0-17.066406-7.640625-17.066406-17.066406zm0 0" fill="#fff"/><path d="m136.660156 245.761719h122.878906c3.769532 0 6.828126-3.058594 6.828126-6.828125 0-3.773438-3.058594-6.828125-6.828126-6.828125h-122.878906c-3.769531 0-6.828125 3.054687-6.828125 6.828125 0 3.769531 3.058594 6.828125 6.828125 6.828125" fill="#54596e"/></svg>