<svg height="512pt" viewBox="0 0 512 512" width="512pt" xmlns="http://www.w3.org/2000/svg"><path d="m416.667969 321.332031h-65.332031v-266.164062c-.003907-30.421875-24.75-55.167969-55.167969-55.167969-30.421875 0-55.167969 24.746094-55.167969 55.167969v111.558593c-7.695312-3.953124-16.265625-6.058593-25.167969-6.058593-25.46875 0-39.679687 16.851562-40.167969 17.371093-.488281-.519531-14.71875-17.371093-40.164062-17.371093-8.898438 0-17.46875 2.105469-25.167969 6.058593v-47.292968c0-30.417969-24.746093-55.167969-55.167969-55.167969-30.417968 0-55.164062 24.75-55.164062 55.167969v184.773437c0 53.335938 17.085938 106.222657 48.199219 149.503907v43.289062c0 8.285156 6.714843 15 15 15 8.285156 0 15-6.714844 15-15v-48.199219c0-3.101562-.9375-5.976562-2.546875-8.367187-.148438-.21875-.300782-.433594-.457032-.644532-29.144531-38.855468-45.195312-87.003906-45.195312-135.582031v-184.773437c0-13.878906 11.289062-25.167969 25.167969-25.167969 13.875 0 25.167969 11.289063 25.167969 25.167969v160.667968c0 30.46875 24.648437 55.164063 55.164062 55.164063 25.46875 0 39.679688-16.851563 40.167969-17.367187.488281.515624 14.71875 17.367187 40.167969 17.367187 30.46875 0 55.167968-24.648437 55.167968-55.164063v-224.933593c-.003906-13.878907 11.285156-25.167969 25.164063-25.167969 13.875 0 25.167969 11.289062 25.167969 25.167969v281.167969c0 8.28125 6.714843 15 15 15h80.332031c30.863281 0 56.796875 21.511718 63.59375 50.332031h-75.769531c-45.839844 0-89.054688 17.074219-122.398438 48.199219h-42.175781c-27.675781 0-49.25-22.558594-49.25-49.265626 0-8.285156-6.71875-14.992187-15-14.992187-8.285157 0-15 6.722656-15 15.007813 0 43.050781 34.792969 79.25 79.25 79.25h33.214843v17.132812c0 8.285156 6.71875 15 15 15 8.285157 0 15-6.714844 15-15v-25.746094c27.691407-25.574218 63.449219-39.589844 101.359376-39.589844h92.507812c8.285156 0 15-6.714843 15-15 0-52.5625-42.765625-95.332031-95.332031-95.332031zm-281.167969-16.066406c-13.90625 0-25.167969-11.246094-25.167969-25.164063v-64.269531c0-13.90625 11.25-25.167969 25.167969-25.167969 13.910156 0 25.167969 11.25 25.167969 25.167969v64.269531c0 13.910157-11.25 25.164063-25.167969 25.164063zm105.5-25.164063c0 13.910157-11.25 25.164063-25.167969 25.164063-13.90625 0-25.167969-11.25-25.167969-25.164063v-64.269531c0-13.90625 11.25-25.167969 25.167969-25.167969 13.910157 0 25.167969 11.25 25.167969 25.167969zm0 0"/></svg>