<?xml version="1.0" encoding="iso-8859-1"?>
<!-- Generator: Adobe Illustrator 19.0.0, SVG Export Plug-In . SVG Version: 6.00 Build 0)  -->
<svg version="1.1" id="Capa_1" xmlns="http://www.w3.org/2000/svg" xmlns:xlink="http://www.w3.org/1999/xlink" x="0px" y="0px"
	 viewBox="0 0 416 416" style="enable-background:new 0 0 416 416;" xml:space="preserve">
<path style="fill:#00FFB0;" d="M280,80v40c0,17.672-14.328,32-32,32H40c-17.672,0-32-14.328-32-32V80c0-17.672,14.328-32,32-32h208
	C265.672,48,280,62.328,280,80z"/>
<g>
	<path style="fill:#000A64;" d="M106.008,99.816c0-19.144-11.328-26.808-27.808-26.808H62.216v54.12H79.04
		C94.68,127.128,106.008,118.96,106.008,99.816z M76.536,115.632V84.496h0.832c7.832,0,13.992,2.656,13.992,15.312
		s-6.16,15.824-13.992,15.824H76.536z"/>
	<path style="fill:#000A64;" d="M138.44,128.128c14.984,0,25.144-10.504,25.144-28.312c0-17.736-10.16-27.808-25.144-27.808
		S113.296,82,113.296,99.816S123.456,128.128,138.44,128.128z M138.44,84.328c6.496,0,10.496,5.664,10.496,15.488
		c0,9.832-4,15.984-10.496,15.984s-10.488-6.16-10.488-15.984C127.952,89.992,131.952,84.328,138.44,84.328z"/>
	<path style="fill:#000A64;" d="M197.016,128.128c6.664,0,12.904-2.672,17.48-8l-7.824-8.656c-2.336,2.504-5.328,4.328-9.488,4.328
		c-7,0-11.656-5.656-11.656-15.816c0-9.832,5.496-15.656,11.992-15.656c3.496,0,5.832,1.328,8.496,3.664l7.824-8.824
		C210.008,75.336,204.184,72,197.352,72c-13.984,0-26.472,10.32-26.472,28.48C170.872,118.96,182.864,128.128,197.016,128.128z"/>
	<rect x="32" y="112" style="fill:#000A64;" width="16" height="16"/>
	<path style="fill:#000A64;" d="M333.656,2.344C332.16,0.84,330.12,0,328,0h-8H120C97.944,0,80,17.944,80,40H40
		C17.944,40,0,57.944,0,80v40c0,22.056,17.944,40,40,40h40v184c0,22.056,17.944,40,40,40h24c4.416,0,8-3.576,8-8s-3.584-8-8-8h-24
		c-13.232,0-24-10.768-24-24V160h152c22.056,0,40-17.944,40-40V80c0-22.056-17.944-40-40-40H96c0-13.232,10.768-24,24-24h192v48
		c0,22.056,17.944,40,40,40h48v240c0,13.232-10.768,24-24,24h-24c-4.416,0-8,3.576-8,8s3.584,8,8,8h24c22.056,0,40-17.944,40-40V96
		v-8c0-2.128-0.84-4.16-2.344-5.656L333.656,2.344z M248,56c13.232,0,24,10.768,24,24v40c0,13.232-10.768,24-24,24H40
		c-13.232,0-24-10.768-24-24V80c0-13.232,10.768-24,24-24H248z"/>
	<path style="fill:#000A64;" d="M296,416c22.056,0,40-17.944,40-40v-80c0-22.056-17.944-40-40-40h-96c-22.056,0-40,17.944-40,40v80
		c0,22.056,17.944,40,40,40H296z M176,376v-80c0-13.232,10.768-24,24-24h96c13.232,0,24,10.768,24,24v80c0,13.232-10.768,24-24,24
		h-96C186.768,400,176,389.232,176,376z"/>
	<path style="fill:#000A64;" d="M299.312,328L264,292.688l-48,48V376h35.312L299.312,328z M232,360v-12.688l32-32L276.688,328
		l-32,32H232z"/>
</g>
<g>
</g>
<g>
</g>
<g>
</g>
<g>
</g>
<g>
</g>
<g>
</g>
<g>
</g>
<g>
</g>
<g>
</g>
<g>
</g>
<g>
</g>
<g>
</g>
<g>
</g>
<g>
</g>
<g>
</g>
</svg>
