<?xml version="1.0" encoding="utf-8"?>
<!-- Generator: Adobe Illustrator 21.0.0, SVG Export Plug-In . SVG Version: 6.00 Build 0)  -->
<svg version="1.1" id="Layer_1" xmlns="http://www.w3.org/2000/svg" xmlns:xlink="http://www.w3.org/1999/xlink" x="0px" y="0px"
	 viewBox="0 0 512 512" style="enable-background:new 0 0 512 512;" xml:space="preserve">
<style type="text/css">
	.st0{fill:#FFF069;}
</style>
<g id="surface1">
	<path class="st0" d="M421.4,214.3c-2.8,1-5.5,2.4-7.9,4.2c-12.6,9.2-36,34.5-36,34.5c0.7-0.7-16.9,16.3-33,32
		c-4.5,4.4-12.1,1.2-12.2-5.1V76.5c0-19.9-16.1-33.7-35.7-29.6c-15.6,3.3-23.9,17.8-23.9,35.1l0.1,153.6l-23.7,0.1V27.7
		c0-19-15.3-31.5-33.7-26.7c-12.6,3.3-18.5,15.2-18.5,30.2v204.7l-23.7,0.1l-0.1-166.3c0-16.6-7.8-31.3-24.4-31.8
		c-17.3-0.5-25.6,14-25.6,31.1l-0.2,167.2l-23.1,0V126.7c0-17.3-8-30.3-25.4-30.3c-17.3,0-25.3,13-25.3,30.3L49,370
		c8.7,125.1,79.4,142,153.3,142c61.2,0,110.2-30.4,137.4-78.9c3.5-5.6,12.9-20.5,24.1-38.1c15.9-25,30.4-47.4,40.5-63.2
		c13.4-20.9,25.6-37.2,40.7-56.9c4.2-5.5,7.7-9.9,9.4-11.7c4.6-5,7.6-11.2,8.5-17.9v-1.3C462.9,219.9,444,206.1,421.4,214.3z"/>
</g>
</svg>
