<?xml version="1.0" encoding="utf-8"?>
<!-- Generator: Adobe Illustrator 23.0.1, SVG Export Plug-In . SVG Version: 6.00 Build 0)  -->
<svg version="1.1" id="Layer_1" xmlns="http://www.w3.org/2000/svg" xmlns:xlink="http://www.w3.org/1999/xlink" x="0px" y="0px"
	 viewBox="0 0 512 512" style="enable-background:new 0 0 512 512;" xml:space="preserve">
<style type="text/css">
	.st0{fill:#3B8686;}
	.st1{fill:#CFF09E;}
</style>
<g>
	<path class="st0" d="M415.9,512H96.1c-33.8,0-61.4-27.5-61.4-61.4V90.5c0-33.8,27.5-61.4,61.4-61.4h319.7
		c33.8,0,61.4,27.5,61.4,61.4v360.2C477.2,484.5,449.7,512,415.9,512z M96.1,58.5c-17.6,0-31.9,14.3-31.9,32v360.2
		c0,17.6,14.3,32,31.9,32h319.7c17.6,0,32-14.3,32-32V90.5c0-17.6-14.3-32-32-32C415.9,58.5,96.1,58.5,96.1,58.5z"/>
	<rect x="370.2" class="st0" width="29.4" height="87.5"/>
	<rect x="284.3" class="st0" width="29.4" height="87.5"/>
	<rect x="198.3" class="st0" width="29.4" height="87.5"/>
	<rect x="112.4" class="st0" width="29.4" height="87.5"/>
</g>
<path class="st1" d="M216.1,231.2h-89.2c-9.9,0-17.9-8-17.9-17.9v-52.4c0-9.9,8-17.9,17.9-17.9h89.2c9.9,0,17.9,8,17.9,17.9v52.4
	C233.9,223.2,225.9,231.2,216.1,231.2z"/>
<g>
	<path class="st0" d="M216.1,245.9h-89.2c-18,0-32.6-14.6-32.6-32.6v-52.4c0-18,14.6-32.6,32.6-32.6h89.2c18,0,32.6,14.6,32.6,32.6
		v52.4C248.6,231.3,234,245.9,216.1,245.9z M126.8,157.7c-1.8,0-3.2,1.4-3.2,3.2v52.4c0,1.8,1.4,3.2,3.2,3.2h89.2
		c1.8,0,3.2-1.4,3.2-3.2v-52.4c0-1.8-1.4-3.2-3.2-3.2L126.8,157.7L126.8,157.7z"/>
	<path class="st0" d="M343.6,231.1c-6.4,0-12.5-2.5-17-7.1l-33-33l20.8-20.8l29.2,29.2l52.1-52.1l20.8,20.8L360.6,224
		C356.1,228.6,350,231.1,343.6,231.1z"/>
</g>
<path class="st1" d="M216.1,398.1h-89.2c-9.9,0-17.9-8-17.9-17.9v-52.4c0-9.9,8-17.9,17.9-17.9h89.2c9.9,0,17.9,8,17.9,17.9v52.4
	C233.9,390.1,225.9,398.1,216.1,398.1z"/>
<g>
	<path class="st0" d="M216.1,412.8h-89.2c-18,0-32.6-14.6-32.6-32.6v-52.4c0-18,14.6-32.6,32.6-32.6h89.2c18,0,32.6,14.6,32.6,32.6
		v52.4C248.6,398.2,234,412.8,216.1,412.8z M126.8,324.6c-1.8,0-3.2,1.4-3.2,3.2v52.4c0,1.8,1.4,3.2,3.2,3.2h89.2
		c1.8,0,3.2-1.4,3.2-3.2v-52.4c0-1.8-1.4-3.2-3.2-3.2H126.8z"/>
	<path class="st0" d="M343.6,398c-6.4,0-12.5-2.5-17-7.1l-33-33l20.8-20.8l29.2,29.2l52.1-52.1l20.8,20.8l-55.8,55.8
		C356.1,395.5,350,398,343.6,398z"/>
</g>
</svg>
