<?xml version="1.0" encoding="utf-8"?>
<!-- Generator: Adobe Illustrator 23.0.1, SVG Export Plug-In . SVG Version: 6.00 Build 0)  -->
<svg version="1.1" id="Layer_1" xmlns="http://www.w3.org/2000/svg" xmlns:xlink="http://www.w3.org/1999/xlink" x="0px" y="0px"
	 viewBox="0 0 512 512" style="enable-background:new 0 0 512 512;" xml:space="preserve">
<style type="text/css">
	.st0{fill:#3B8686;}
	.st1{fill:#CFF09E;}
</style>
<path class="st0" d="M512,226.7c0-0.7-0.1-1.4-0.2-2V80.1c0-13.9-9.6-25.2-21.5-25.2H423c-4.1,0-7.5,3.9-7.5,8.8s3.4,8.8,7.5,8.8
	h67.3c3.6,0,6.5,3.4,6.5,7.6v137.8H212.7V72.5h175.4c4.1,0,7.5-3.9,7.5-8.8s-3.4-8.8-7.5-8.8H21.5C9.6,54.9,0,66.2,0,80.1v356.4
	c0,13.9,9.6,25.2,21.5,25.2h468.9c11.8,0,21.5-11.3,21.5-25.2V228.7C511.9,228.1,512,227.4,512,226.7z M496.8,235.5v101.1H386.7
	L274.9,251c-3.5-2.7-8.1-1.5-10.4,2.6c-2.3,4.1-1.3,9.5,2.2,12.2l92.5,70.9H15v-55.4h185.3c6.9,0,12.5-6.6,12.5-14.6v-31.1
	L496.8,235.5L496.8,235.5z M71.6,153.5c3.6-0.6,6.3-4.3,6.4-8.6l0-0.4c4.9-6,12.5-8.6,24.8-8.6h7.9c12.3,0,19.8,2.6,24.8,8.6v0.3
	c0,4.3,2.7,8,6.4,8.7c1.2,0.2,2.1,1.5,2.1,2.9c0,1.4-0.9,2.7-2.1,2.9c-3.5,0.6-6.2,4-6.4,8.1c-0.5,8.3-4,16.1-9.6,21.3
	c-1.8,1.7-2.8,4.2-2.8,6.9v20.9c0,2.5-1.7,4.5-3.8,4.5H94.2c-2.1,0-3.8-2-3.8-4.5v-20.9c0-2.7-1-5.2-2.8-6.9
	c-5.6-5.2-9.1-13-9.6-21.3c-0.2-4.1-2.9-7.5-6.4-8.1c-1.2-0.2-2.1-1.4-2.1-2.9C69.4,154.9,70.3,153.7,71.6,153.5z M82.8,121.2
	c4.6-7.4,12.1-12.3,20.6-12.3h6.4c8.4,0,15.9,4.8,20.6,12.3c-6.7-2.4-13.6-2.9-19.8-2.9h-7.9C96.5,118.3,89.5,118.8,82.8,121.2z
	 M75.4,216.7c0.2,12,8.5,21.7,18.8,21.7H119c10.3,0,18.6-9.7,18.8-21.7h6.5c17.2,0,31.3,16.5,31.3,36.7v10.2H37.7v-10.2
	c0-20.2,14-36.7,31.3-36.7H75.4z M21.5,72.5h176.3v191.1h-7.2v-10.2c0-29.9-20.8-54.3-46.3-54.3h-6.2c5.9-6.7,9.9-15.4,11.4-24.7
	c5.5-3.5,9.3-10.4,9.3-18.1c0-7.3-3.4-13.9-8.5-17.5c0-26.2-18.2-47.5-40.5-47.5h-6.4c-22.3,0-40.5,21.3-40.5,47.5
	c-5.1,3.6-8.5,10.2-8.5,17.5c0,7.7,3.7,14.6,9.3,18.1c1.6,9.4,5.6,18,11.4,24.7H69c-25.5,0-46.3,24.3-46.3,54.3v10.2H15V80.1
	C15,75.9,17.9,72.5,21.5,72.5z M496.8,436.6c0,4.2-2.9,7.6-6.5,7.6H21.5c-3.6,0-6.5-3.4-6.5-7.6v-82.4h369.4h0h0h112.4L496.8,436.6
	L496.8,436.6z"/>
<path class="st1" d="M63.2,372.5c-4.1,0-7.5,3.4-7.5,7.5v36.2c0,4.1,3.4,7.5,7.5,7.5c4.1,0,7.5-3.4,7.5-7.5v-36.2
	C70.7,375.8,67.3,372.5,63.2,372.5z"/>
<path class="st1" d="M92.5,372.5c-4.1,0-7.5,3.4-7.5,7.5v36.2c0,4.1,3.4,7.5,7.5,7.5c4.1,0,7.5-3.4,7.5-7.5v-36.2
	C100,375.8,96.6,372.5,92.5,372.5z"/>
<path class="st1" d="M255.2,391.6c-3.1-10-12.5-17.3-23.6-17.3c-11.1,0-20.4,7.3-23.6,17.3h-55.1c-4.1,0-7.5,3.4-7.5,7.5
	s3.4,7.5,7.5,7.5h55.2c3.2,9.9,12.5,17,23.4,17c10.9,0,20.2-7.1,23.4-17h205.5c4.1,0,7.5-3.4,7.5-7.5s-3.4-7.5-7.5-7.5H255.2z
	 M231.7,408.6c-5.3,0-9.7-4.3-9.7-9.7c0-5.3,4.3-9.7,9.7-9.7c5.3,0,9.7,4.3,9.7,9.7C241.4,404.2,237,408.6,231.7,408.6z"/>
<path class="st1" d="M197.7,263.6h-7.2c0,0,5.5-65.3-52.4-64.4c0,0,10.6-11,11.4-24.7c0,0,20.7-18,0.8-35.6c0,0-0.7-47.8-43.7-47.5
	c-43,0.4-43.7,47.5-43.7,47.5s-19.8,16.2,0.8,35.6c0,0,3,16.1,11.4,24.7c0,0-56.3-3.6-52.4,64.4H15V80.1c0,0,0.3-7.6,6.5-7.6
	s176.3,0,176.3,0V263.6z"/>
</svg>
