<?xml version="1.0" encoding="utf-8"?>
<!-- Generator: Adobe Illustrator 23.0.1, SVG Export Plug-In . SVG Version: 6.00 Build 0)  -->
<svg version="1.1" id="Layer_17" xmlns="http://www.w3.org/2000/svg" xmlns:xlink="http://www.w3.org/1999/xlink" x="0px" y="0px"
	 viewBox="0 0 512 512" style="enable-background:new 0 0 512 512;" xml:space="preserve">
<style type="text/css">
	.st0{fill:#CFF09E;}
	.st1{fill:#A8DBA8;}
	.st2{fill:#79BD9A;}
	.st3{fill:#3B8686;}
</style>
<title>Schedule icon</title>
<desc>Schedule icon for website, application, printing, document, poster design, etc.</desc>
<g id="Flat_copy_2">
	<path class="st0" d="M72,288V160H24v280c0,17.7,14.3,32,32,32h400c17.7,0,32-14.3,32-32v-8H216C136.5,432,72,367.5,72,288z"/>
	<path class="st1" d="M456,80h-16v16c0,13.3-10.7,24-24,24s-24-10.7-24-24V80h-56v16c0,13.3-10.7,24-24,24s-24-10.7-24-24V80h-64v16
		c0,13.3-10.7,24-24,24s-24-10.7-24-24V80h-56v16c0,13.3-10.7,24-24,24s-24-10.7-24-24V80H56c-17.7,0-32,14.3-32,32v48h464v-48
		C488,94.3,473.7,80,456,80z"/>
	<circle class="st2" cx="200" cy="232" r="32"/>
	<circle class="st2" cx="312" cy="232" r="32"/>
	<circle class="st2" cx="88" cy="232" r="32"/>
	<path class="st1" d="M184,304h16c4.4,0,8,3.6,8,8v112c0,4.4-3.6,8-8,8h-16c-4.4,0-8-3.6-8-8V312C176,307.6,179.6,304,184,304z"/>
	<path class="st1" d="M152,320h16c4.4,0,8,3.6,8,8v80c0,4.4-3.6,8-8,8h-16c-4.4,0-8-3.6-8-8v-80C144,323.6,147.6,320,152,320z"/>
	<path class="st1" d="M328,432h-16c-4.4,0-8-3.6-8-8V312c0-4.4,3.6-8,8-8h16c4.4,0,8,3.6,8,8v112C336,428.4,332.4,432,328,432z"/>
	<path class="st1" d="M360,416h-16c-4.4,0-8-3.6-8-8v-80c0-4.4,3.6-8,8-8h16c4.4,0,8,3.6,8,8v80C368,412.4,364.4,416,360,416z"/>
	<rect x="208" y="352" class="st2" width="96" height="32"/>
	<path class="st2" d="M144,352h-16c-8.8,0-16,7.2-16,16s7.2,16,16,16h16V352z"/>
	<path class="st2" d="M384,352h-16v32h16c8.8,0,16-7.2,16-16S392.8,352,384,352z"/>
	<path class="st0" d="M416,72V24c-13.3,0-24,10.7-24,24v48c0,13.3,10.7,24,24,24s24-10.7,24-24C426.7,96,416,85.3,416,72z"/>
	<path class="st0" d="M312,72V24c-13.3,0-24,10.7-24,24v48c0,13.3,10.7,24,24,24s24-10.7,24-24C322.7,96,312,85.3,312,72z"/>
	<path class="st0" d="M200,72V24c-13.3,0-24,10.7-24,24v48c0,13.3,10.7,24,24,24s24-10.7,24-24C210.7,96,200,85.3,200,72z"/>
	<path class="st0" d="M96,72V24c-13.3,0-24,10.7-24,24v48c0,13.3,10.7,24,24,24s24-10.7,24-24C106.7,96,96,85.3,96,72z"/>
</g>
<g id="Stroke_Close_Final_copy_2">
	<path class="st3" d="M456,72h-8V48c0-17.7-14.3-32-32-32s-32,14.3-32,32v24h-40V48c0-17.7-14.3-32-32-32s-32,14.3-32,32v24h-48V48
		c0-17.7-14.3-32-32-32s-32,14.3-32,32v24h-40V48c0-17.7-14.3-32-32-32S64,30.3,64,48v24h-8c-22.1,0-40,17.9-40,40v328
		c0,22.1,17.9,40,40,40h400c22.1,0,40-17.9,40-40V112C496,89.9,478.1,72,456,72z M400,48c0-8.8,7.2-16,16-16s16,7.2,16,16v48
		c0,8.8-7.2,16-16,16s-16-7.2-16-16V48z M296,48c0-8.8,7.2-16,16-16s16,7.2,16,16v48c0,8.8-7.2,16-16,16s-16-7.2-16-16V48z M184,48
		c0-8.8,7.2-16,16-16s16,7.2,16,16v48c0,8.8-7.2,16-16,16s-16-7.2-16-16V48z M80,48c0-8.8,7.2-16,16-16s16,7.2,16,16v48
		c0,8.8-7.2,16-16,16s-16-7.2-16-16V48z M56,88h8v8c0,17.7,14.3,32,32,32s32-14.3,32-32v-8h40v8c0,17.7,14.3,32,32,32s32-14.3,32-32
		v-8h48v8c0,17.7,14.3,32,32,32s32-14.3,32-32v-8h40v8c0,17.7,14.3,32,32,32s32-14.3,32-32v-8h8c13.3,0,24,10.7,24,24v40H32v-40
		C32,98.7,42.7,88,56,88z M480,440c0,13.3-10.7,24-24,24l0,0H56c-13.3,0-24-10.7-24-24l0,0V168h448V440z"/>
	<path class="st3" d="M200,272c22.1,0,40-17.9,40-40s-17.9-40-40-40s-40,17.9-40,40S177.9,272,200,272z M200,208
		c13.3,0,24,10.7,24,24s-10.7,24-24,24s-24-10.7-24-24l0,0C176,218.7,186.7,208,200,208z"/>
	<path class="st3" d="M312,272c22.1,0,40-17.9,40-40s-17.9-40-40-40s-40,17.9-40,40S289.9,272,312,272z M312,208
		c13.3,0,24,10.7,24,24s-10.7,24-24,24s-24-10.7-24-24l0,0C288,218.7,298.7,208,312,208z"/>
	<path class="st3" d="M88,272c22.1,0,40-17.9,40-40s-17.9-40-40-40s-40,17.9-40,40S65.9,272,88,272z M88,208c13.3,0,24,10.7,24,24
		s-10.7,24-24,24s-24-10.7-24-24l0,0C64,218.7,74.7,208,88,208z"/>
	<path class="st3" d="M387.7,260.3c1.5,1.5,3.6,2.3,5.7,2.3c2.1,0,4.2-0.8,5.7-2.3l17-17l17,17c1.5,1.5,3.6,2.3,5.7,2.3
		c2.1,0,4.2-0.8,5.7-2.3c3.1-3.1,3.2-8.2,0-11.3c0,0,0,0,0,0l-17-17l17-17c3.1-3.1,3.1-8.2,0-11.4c-3.1-3.1-8.2-3.1-11.4,0l-17,17
		l-17-17c-3.1-3.1-8.2-3.1-11.4,0c-3.1,3.1-3.1,8.2,0,11.4l17,17l-17,17C384.5,252.1,384.5,257.1,387.7,260.3
		C387.6,260.3,387.7,260.3,387.7,260.3z"/>
	<path class="st3" d="M128,344c-13.3,0-24,10.7-24,24s10.7,24,24,24h8v16c0,8.8,7.2,16,16,16h16c0,8.8,7.2,16,16,16h16
		c8.8,0,16-7.2,16-16v-32h80v32c0,8.8,7.2,16,16,16h16c8.8,0,16-7.2,16-16h16c8.8,0,16-7.2,16-16v-16h8c13.3,0,24-10.7,24-24
		s-10.7-24-24-24h-8v-16c0-8.8-7.2-16-16-16h-16c0-8.8-7.2-16-16-16h-16c-8.8,0-16,7.2-16,16v32h-80v-32c0-8.8-7.2-16-16-16h-16
		c-8.8,0-16,7.2-16,16h-16c-8.8,0-16,7.2-16,16v16H128z M128,376c-4.4,0-8-3.6-8-8s3.6-8,8-8h8v16H128z M384,360c4.4,0,8,3.6,8,8
		s-3.6,8-8,8h-8v-16H384z M360,328v80h-16v-80H360z M312,312h16v112h-16V312z M296,360v16h-80v-16H296z M184,312h16v40l0,0v32l0,0
		v40h-16V312z M152,328h16v80h-16V328z"/>
</g>
<path class="st0" d="M-398,277"/>
</svg>
